<svg xmlns="http://www.w3.org/2000/svg" width="1814" height="976" viewBox="0 0 1814 976" version="1.1"><path d="M 955.175 45.029 C 927.895 52.175, 912.136 68.126, 886.045 115 C 856.240 168.546, 848.966 176.447, 810.680 196.856 C 767.812 219.707, 750.316 239.357, 721.510 297 C 677.451 385.164, 650.978 402.360, 606.296 371.839 C 592.772 362.601, 570.647 351.839, 558 348.346 L 551.500 346.551 539 346.621 L 526.500 346.692 518 349.464 C 496.283 356.544, 478.419 371.180, 436.062 416.597 C 432.521 420.394, 425.317 428, 420.054 433.500 C 414.791 439, 408.032 446.200, 405.036 449.500 C 402.039 452.800, 392.367 463.133, 383.544 472.462 C 361.245 496.037, 351.539 506.386, 344.108 514.511 C 337.336 521.915, 324.411 535.463, 304.526 556 C 277.438 583.977, 274 588.683, 274 597.789 C 274 607.108, 277.865 614.512, 285 618.860 L 288.500 620.993 296.610 620.996 L 304.721 621 308.610 618.379 C 315.127 613.988, 331.469 597.517, 363.558 563 C 366.370 559.975, 372.041 553.900, 376.161 549.500 C 380.280 545.100, 385.642 539.250, 388.075 536.500 C 390.509 533.750, 395.029 528.800, 398.120 525.500 C 401.211 522.200, 405.258 517.700, 407.114 515.500 C 410.464 511.528, 413.720 507.943, 426.189 494.500 C 429.759 490.650, 437.340 482.325, 443.034 476 C 521.287 389.082, 534.596 381.448, 568.500 404.034 C 584.902 414.961, 608.756 426.431, 622.802 430.143 L 630.500 432.178 642 432.286 L 653.500 432.394 662.103 430.251 C 698.716 421.128, 720.360 397.872, 760.520 324.500 C 796.033 259.619, 799.005 256.219, 838.691 235.079 C 879.491 213.345, 892.271 199.500, 925.525 141 C 947.108 103.032, 958.076 91.486, 973.757 90.227 L 980.053 89.722 987.466 93.386 L 994.880 97.050 1003.479 106.266 C 1019.785 123.739, 1067.796 192.263, 1099.473 243.271 C 1103.309 249.447, 1106.803 254.950, 1107.238 255.500 C 1107.673 256.050, 1110.339 259.650, 1113.162 263.500 C 1144.553 306.309, 1181.986 312.354, 1230.935 282.518 C 1272.091 257.433, 1276.322 259.321, 1351.948 336.500 C 1451.564 438.163, 1476.416 459.328, 1494.271 457.709 L 1500.265 457.166 1504.297 454.245 C 1509.472 450.496, 1513.039 443.666, 1513.714 436.212 L 1514.244 430.372 1511.434 424.633 L 1508.623 418.894 1501.543 413.697 C 1497.649 410.839, 1493.736 408.050, 1492.849 407.500 C 1491.961 406.950, 1487.973 403.800, 1483.987 400.500 C 1480 397.200, 1475.249 393.342, 1473.427 391.926 C 1467.412 387.250, 1440.968 361.846, 1418.856 339.500 C 1359.049 279.061, 1333.423 253.691, 1325.453 247.033 C 1304.922 229.880, 1285.824 222, 1264.785 222 L 1255.486 222 1246.493 224.468 C 1236.182 227.297, 1225.403 232.413, 1212.500 240.599 C 1207.550 243.740, 1199.760 248.265, 1195.190 250.655 L 1186.880 255 1181.477 255 C 1168.739 255, 1158.705 247.665, 1147.453 230.128 C 1144.179 225.024, 1138.382 216.045, 1134.571 210.174 C 1130.759 204.303, 1123.714 193.200, 1118.914 185.500 C 1114.115 177.800, 1108.148 168.575, 1105.655 165 C 1087.206 138.545, 1078.273 125.880, 1075.326 122 C 1073.445 119.525, 1067.362 111.425, 1061.807 104 C 1022.789 51.845, 992.693 35.201, 955.175 45.029 M 683.500 488.468 C 661.334 493.302, 642.939 507.285, 621.207 535.820 C 617.990 540.044, 611.126 549.074, 605.955 555.887 C 581.996 587.449, 569.501 592.394, 545.064 579.985 C 502.716 558.480, 482.997 565.368, 426.583 621.372 C 370.475 677.073, 329.795 704.517, 284.795 717.025 C 264.804 722.582, 263.745 723.018, 259.427 727.468 C 248.568 738.659, 252.512 758.339, 266.739 763.955 C 283.296 770.491, 335.157 751.037, 379.500 721.658 C 411.939 700.165, 434.856 680.081, 479.057 634.408 L 489.613 623.500 495.947 620.250 L 502.281 617 509.015 617 C 516.728 617, 519.491 617.862, 534.041 624.806 C 539.838 627.573, 547.488 630.596, 551.041 631.524 L 557.500 633.211 571.500 632.777 L 585.500 632.342 590.500 630.152 C 611.424 620.990, 624.883 609.320, 644.254 583.541 C 698.031 511.979, 711.384 514.587, 793.075 612.609 C 811.778 635.052, 812.818 636.350, 818.956 644.900 C 821.957 649.080, 829.398 659.250, 835.491 667.500 C 846.841 682.866, 855.519 695.394, 862.381 706.320 C 868.338 715.805, 885 744.937, 885 745.868 C 885 746.705, 887.202 749.531, 891.265 753.907 C 904.988 768.688, 930.369 757.702, 930.328 737 L 930.313 729.500 927.943 724.500 C 923.299 714.703, 898.130 673.487, 892.844 667.022 C 891.280 665.109, 890 663.074, 890 662.500 C 890 661.926, 888.726 659.891, 887.169 657.978 C 885.612 656.065, 881.265 650.010, 877.510 644.523 C 866.795 628.867, 842.246 596.970, 832.010 585.404 C 817.896 569.456, 815.350 566.488, 813.854 564.242 C 807.134 554.146, 761.232 511.755, 745.931 501.513 C 726.735 488.665, 704.193 483.954, 683.500 488.468 M 1571 490.662 C 1568.525 490.834, 1559.075 491.453, 1550 492.037 C 1508.196 494.729, 1426.151 505.866, 1392.500 513.417 C 1391.400 513.664, 1386.225 514.766, 1381 515.867 C 1365.676 519.095, 1318.932 530.865, 1307 534.501 C 1263.518 547.748, 1222.740 562.006, 1205.500 569.991 C 1196.611 574.108, 1186.213 578.783, 1179.500 581.681 C 1167.879 586.698, 1142.480 600.158, 1127.612 609.180 C 1120.523 613.481, 1114.608 617, 1114.468 617 C 1114.120 617, 1099.317 626.995, 1089.500 633.858 C 1059.023 655.165, 1025.427 686.181, 1004.089 712.710 C 997.989 720.295, 992.539 727.053, 991.979 727.729 C 989.229 731.047, 971.379 758.961, 964.949 770 C 955.707 785.864, 943.341 812.252, 936.265 831.209 L 933.543 838.500 933.522 847 L 933.500 855.500 936.187 860.070 C 937.665 862.584, 940.768 865.953, 943.084 867.558 L 947.294 870.476 954.564 870.843 C 965.417 871.391, 971.126 868.770, 982.708 857.922 C 994.507 846.872, 1003.852 839.713, 1022.500 827.439 C 1033.500 820.200, 1044.075 813.496, 1046 812.542 L 1049.500 810.808 1045.500 814.116 C 1030.504 826.521, 1022.707 837.005, 1012.562 858.406 C 997.997 889.133, 983.633 900.891, 958.465 902.692 L 950.429 903.267 944.465 901.550 C 922.560 895.247, 913.134 885.546, 902.148 858 C 898.749 849.475, 894.512 839.995, 892.733 836.933 C 890.955 833.871, 887.934 828.696, 886.020 825.433 C 879.167 813.749, 856.770 793.067, 837.589 780.708 C 821.729 770.490, 805.788 763.251, 777.608 753.470 C 722.324 734.282, 650.250 740.799, 533.499 775.542 C 524.455 778.234, 486.534 789.150, 480 790.943 C 478.075 791.471, 472.675 793.055, 468 794.463 C 463.325 795.871, 450.275 799.248, 439 801.968 C 332.108 827.755, 252.480 832.962, 133.536 821.942 C 122.006 820.874, 112.249 820, 111.854 820 C 111.458 820, 110.814 818.987, 110.423 817.750 C 106.332 804.826, 94 794.091, 79.124 790.502 L 71.749 788.723 63.706 789.343 C 23.203 792.467, 4.285 842.102, 32.305 871.729 C 51.896 892.443, 87.078 891.508, 102.357 869.867 L 106.500 863.998 110.500 864.476 C 112.700 864.740, 117.875 865.212, 122 865.527 C 126.125 865.841, 130.454 866.295, 131.619 866.536 C 136.313 867.503, 175.229 869.989, 203 871.096 C 269.056 873.727, 338.408 869.037, 390.500 858.414 C 394.900 857.517, 399.625 856.565, 401 856.300 C 440.115 848.748, 484.405 837.610, 532 823.357 C 543.825 819.816, 557.100 816.015, 561.500 814.911 C 565.900 813.807, 576.091 810.899, 584.147 808.450 C 615.531 798.907, 645.502 792.460, 672.500 789.444 L 687.500 787.768 709 788.349 C 778.170 790.215, 838.426 823.203, 854.495 868 C 870.844 913.576, 898.275 939.531, 938.500 947.482 L 947.500 949.261 960.500 948.686 C 979.124 947.863, 991.630 944.138, 1007.257 934.757 C 1029.649 921.315, 1039.848 908.576, 1060.687 868.027 C 1062.234 865.016, 1065.975 860.039, 1069 856.965 L 1074.500 851.378 1085.500 845.779 C 1095.485 840.697, 1114.475 832.673, 1126 828.667 C 1128.475 827.807, 1132.975 826.174, 1136 825.039 C 1174.023 810.775, 1260.216 793.037, 1323 786.554 C 1326.025 786.242, 1334.575 785.336, 1342 784.541 C 1412.381 777.004, 1523.829 781.634, 1609.500 795.653 C 1663.921 804.559, 1687.986 809.526, 1747.394 824.115 C 1780.134 832.154, 1792.545 827.267, 1792.064 806.525 L 1791.926 800.549 1789.408 796.252 C 1783.961 786.958, 1772.356 782.843, 1712.500 768.975 C 1681.383 761.766, 1674.919 760.457, 1643.500 754.998 C 1538.515 736.758, 1415.814 732.202, 1308 742.541 C 1264.639 746.699, 1194.315 760.009, 1149.500 772.540 C 1121.006 780.507, 1098.522 788.185, 1073.635 798.448 C 1052.839 807.025, 1064.185 800.976, 1097.500 785.726 C 1159.038 757.557, 1241.088 734.591, 1336 718.968 C 1349.502 716.746, 1385.772 712.663, 1408.500 710.808 C 1430.043 709.049, 1520.547 709.047, 1543 710.806 C 1573.391 713.186, 1610.140 717.190, 1623.500 719.578 C 1625.150 719.873, 1634.600 721.413, 1644.500 723.001 C 1654.400 724.588, 1666.325 726.602, 1671 727.475 C 1709.188 734.606, 1708.954 734.580, 1716.635 732.501 L 1723.209 730.721 1727 727.111 C 1741.463 713.339, 1732.295 694.442, 1708.332 688.636 C 1635.442 670.974, 1514.491 660.355, 1439.500 665.033 C 1400.501 667.466, 1338.584 673.370, 1315 676.904 C 1293.149 680.178, 1268.620 684.625, 1248.627 688.935 C 1229.939 692.964, 1159.544 712.045, 1147.124 716.449 C 1126.012 723.933, 1152.842 710.692, 1186.791 696.871 C 1283.188 657.628, 1383.929 637.305, 1511.500 631.364 L 1546.500 629.735 1582.764 630.946 C 1602.709 631.613, 1623.184 632.561, 1628.264 633.052 C 1633.344 633.544, 1642.130 633.958, 1647.790 633.973 L 1658.080 634 1661.982 632.009 C 1666.765 629.569, 1670.217 625.131, 1672.583 618.381 L 1674.377 613.261 1673.087 607.498 L 1671.797 601.735 1667.820 597.420 C 1653.717 582.121, 1511.408 581.573, 1403 596.400 C 1344.946 604.340, 1320.473 609.056, 1274.500 621.165 C 1261.850 624.496, 1250.150 627.567, 1248.500 627.989 C 1243.514 629.263, 1201.199 642.899, 1190.500 646.679 C 1165.054 655.671, 1113.627 677.917, 1100.205 685.740 C 1087.960 692.876, 1110.027 675.543, 1130 662.337 C 1172.579 634.183, 1212.690 614.922, 1278.500 591.028 C 1288.111 587.539, 1316.994 578.663, 1329.500 575.357 C 1334.450 574.048, 1342.550 571.875, 1347.500 570.529 C 1413.195 552.655, 1508.988 538.369, 1578.500 536.078 L 1601.500 535.320 1605 533.759 C 1619.409 527.333, 1622.690 509.918, 1611.627 498.586 L 1606.351 493.182 1600.994 491.591 C 1595.954 490.094, 1584.344 489.735, 1571 490.662" stroke="none" fill="#b45309" fill-rule="evenodd"/></svg>