<svg version="1.1" xmlns="http://www.w3.org/2000/svg" style="display: block;" viewBox="0 0 2048 2048" width="1024" height="1024" preserveAspectRatio="none">
<defs>
	<linearGradient id="Gradient1" gradientUnits="userSpaceOnUse" x1="1027.87" y1="705.636" x2="1063.9" y2="685.943">
		<stop class="stop0" offset="0" stop-opacity="1" stop-color="rgb(11,16,11)"/>
		<stop class="stop1" offset="1" stop-opacity="1" stop-color="rgb(36,31,31)"/>
	</linearGradient>
	<linearGradient id="Gradient2" gradientUnits="userSpaceOnUse" x1="849.483" y1="827.859" x2="865.164" y2="806.618">
		<stop class="stop0" offset="0" stop-opacity="1" stop-color="rgb(12,16,9)"/>
		<stop class="stop1" offset="1" stop-opacity="1" stop-color="rgb(33,26,30)"/>
	</linearGradient>
</defs>
<path transform="translate(0,0)" fill="rgb(255,255,254)" d="M 0 0 L 2048 0 L 2048 2048 L 0 2048 L 0 0 z"/>
<path transform="translate(0,0)" fill="rgb(32,32,30)" d="M 1237.03 786.484 C 1244.77 794.229 1252.22 832.916 1253.63 844.559 C 1256.5 868.399 1256.01 893.905 1256 917.947 L 1255.86 1015.26 L 1255.88 1118 C 1255.91 1148.27 1257.05 1185.63 1250.99 1214.98 C 1243.19 1252.34 1226.87 1287.4 1203.3 1317.42 C 1165.93 1365.58 1110.81 1396.75 1050.27 1403.92 C 983.807 1411.87 915.374 1390.41 866.794 1344.07 C 862.447 1339.92 844.624 1322.94 844.021 1317.76 C 846.38 1314.76 844.942 1315.66 848.14 1314.51 C 853.714 1317.73 873.403 1339.67 881.421 1346.73 C 899.304 1337.22 916.083 1331.29 932.697 1322.68 C 914.799 1316.19 894.684 1310.26 875.836 1308.26 C 868.322 1307.46 861.359 1308.38 853.629 1307.66 L 853.377 1305.64 C 854.34 1304.07 855.721 1300.94 857.697 1300.9 C 885.188 1300.43 918.727 1308.25 942.869 1320.03 C 961.949 1313.02 981.258 1307.07 1000.52 1300.56 C 968.367 1297.21 941.203 1289.33 911.75 1276.28 C 905.606 1273.56 884.153 1268.45 883.709 1262.19 C 885.518 1260.63 886.883 1259.92 889.322 1260.64 C 899.572 1263.67 911.935 1268.63 921.819 1272.72 C 956.795 1287.17 982.537 1294.67 1021.25 1294.07 C 1039.05 1292.76 1065.96 1281.77 1078.39 1267.99 C 1069.8 1269.62 1061.15 1270.91 1052.46 1271.85 C 1005.07 1276.76 961.405 1266.55 918.555 1246.99 C 912.266 1244.12 895.45 1239.87 896.337 1232.63 C 897.02 1232.23 897.703 1231.83 898.385 1231.44 C 906.091 1233.78 924.631 1241.55 931.294 1244.55 C 980.422 1266.64 1026.27 1270.88 1079.65 1261.44 C 1075.61 1250.99 1070.62 1247.62 1061.91 1241.12 C 990.581 1246.44 968.101 1231.23 905.667 1205.38 C 911.949 1190.63 922.059 1151.6 938.89 1146.33 C 949.181 1143.1 962.266 1151.33 971.089 1156.63 C 966.775 1143.99 965.202 1139.97 955.563 1131.09 C 969.699 1130.01 973.961 1132.66 987.442 1136.41 C 982.709 1130.1 979.12 1127.13 973.204 1121.82 C 985.81 1117.33 990.032 1118.42 1003.29 1119.44 C 994.534 1110.89 992.037 1110.04 980.687 1105.45 C 998.563 1100.79 1011.93 1095.93 1028.47 1087.6 L 1000.95 1084.48 C 1032.75 1070.65 1051.17 1049.75 1072.37 1023.05 C 1076.19 1018.91 1078.55 1010.9 1082.2 1007.1 C 1101.92 986.563 1117.63 963.681 1132.99 939.801 C 1137.34 933.042 1137.61 927.971 1140.97 921.669 C 1143.5 916.901 1151.69 909.781 1154.8 904.75 C 1159.33 898.526 1163.19 892.686 1167.4 886.237 C 1174.44 892.178 1189.39 909.183 1196.55 917.075 C 1213.84 936.16 1230.26 954.329 1248.28 972.835 C 1249.18 951.841 1248.61 929.889 1248.71 909.501 C 1248.92 870.034 1249.19 832.38 1233.7 795.41 C 1232.66 792.931 1235.66 788.789 1237.03 786.484 z"/>
<path transform="translate(0,0)" fill="rgb(255,255,254)" d="M 1098.72 1031.91 C 1101.7 1032.06 1100.46 1031.53 1102.62 1033.37 C 1101.66 1036.6 1094.17 1040.77 1090.46 1044.24 L 1090.92 1045.94 C 1101.56 1056 1127.9 1057.69 1133.11 1070.77 C 1131.21 1085.54 1099.81 1086.62 1100.4 1102.35 C 1100.69 1110.17 1124.62 1115.72 1124.36 1126.11 C 1128.88 1148.08 1051.21 1158.93 1062.85 1180.93 C 1079.2 1211.85 1159.93 1225.73 1169.18 1266.36 C 1177.57 1303.21 1124.37 1335.85 1103.16 1359.81 C 1092.65 1371.68 1088.1 1377.25 1079.87 1391.52 C 1032.8 1401.68 1002.94 1401.96 955.753 1388.32 C 929.571 1379.6 914.786 1371.17 892.03 1356.2 C 920.253 1338.4 941.046 1334.28 969.406 1323.49 C 995.767 1313.46 1078.91 1297.24 1090.05 1274.26 C 1109.33 1234.49 1032.11 1231.44 1020.17 1184.53 L 1019.82 1183.12 L 1020.01 1182.33 C 1020.87 1178.67 1021.57 1175.03 1023.67 1171.83 C 1037.26 1151.18 1093.45 1141.8 1098.89 1127.45 C 1101.7 1120.05 1081.38 1111.37 1078.95 1103.67 C 1073.72 1087.06 1110.21 1082.25 1116.69 1071.31 C 1116.59 1060.4 1090.55 1060.72 1080.36 1049.11 C 1077.77 1040.1 1091.93 1035.14 1098.72 1031.91 z"/>
<path transform="translate(0,0)" fill="rgb(255,255,254)" d="M 1162.44 911.245 C 1164 911.916 1166.37 913.089 1167.42 914.468 C 1182.96 934.888 1197.32 955.313 1213.84 975.008 C 1204.88 971.777 1195.77 966.053 1187.44 961.235 C 1191.88 972.786 1198.18 984.037 1203.48 995.379 L 1194.55 989.719 C 1183.34 982.408 1172.09 973.702 1160.7 966.062 L 1161.16 980.494 C 1153.76 973.552 1140.14 962.095 1134.59 954.658 C 1139.6 946.327 1141.09 943.98 1148.04 937.772 C 1155.22 939.326 1157.11 939.818 1163.86 942.752 C 1161.42 936.524 1159.05 930.267 1156.76 923.983 C 1158.45 919.46 1160.37 915.588 1162.44 911.245 z"/>
<path transform="translate(0,0)" fill="rgb(255,255,254)" d="M 1180.55 1209.38 C 1200.53 1206.47 1224.47 1210.18 1243.65 1215.79 L 1238.37 1236.09 C 1227.6 1233.34 1220.36 1232.48 1209.42 1231.11 C 1193.78 1230.49 1176.76 1230.09 1161.35 1233 C 1154.78 1227.46 1146.92 1222.09 1139.87 1217.16 C 1153.18 1213.43 1166.79 1210.83 1180.55 1209.38 z"/>
<path transform="translate(0,0)" fill="rgb(255,255,254)" d="M 1180.74 1237.42 C 1197.16 1235.42 1219.9 1238.85 1236.16 1241.95 C 1234.61 1246.35 1230 1260.57 1227.06 1262.7 C 1209.98 1258.66 1197.86 1258.67 1180.7 1258.82 C 1175.89 1249.72 1173.76 1246.43 1167.08 1238.76 C 1171.48 1238.21 1176.28 1237.85 1180.74 1237.42 z"/>
<path transform="translate(0,0)" fill="rgb(255,255,254)" d="M 1177.67 1187.41 C 1189.07 1186.56 1243.9 1187.92 1247.43 1200.93 C 1245.87 1202.43 1244.31 1202.86 1242.1 1202.33 C 1220.71 1197.15 1201.86 1194.93 1179.78 1195.11 C 1163.17 1196.64 1148.27 1199.27 1132.5 1204.73 C 1128.94 1205.97 1122.1 1208.24 1118.49 1208.15 C 1115.34 1205.93 1116.25 1207.35 1115.27 1204 C 1120.54 1196.32 1168.02 1188.37 1177.67 1187.41 z"/>
<path transform="translate(0,0)" fill="rgb(255,255,254)" d="M 1182.54 1265.05 C 1198.61 1264.67 1209.25 1265.82 1224.88 1269.6 C 1222.84 1273.62 1220.59 1277.71 1218.46 1281.71 L 1213.62 1289.61 C 1202.79 1287.91 1193.67 1287.35 1182.77 1287.02 C 1183.19 1278.28 1183.27 1273.72 1182.54 1265.05 z"/>
<path transform="translate(0,0)" fill="rgb(255,255,254)" d="M 919.227 1185.39 C 934.644 1189.04 951.298 1197.04 969.06 1200.8 C 985.509 1204.28 998.243 1203.87 1013.06 1206.58 C 1015.05 1208.88 1014.75 1210.33 1014.88 1213.41 C 987.525 1212.85 964.634 1208.37 938.596 1200.13 C 933.078 1198.39 919.606 1195.13 917.171 1190.54 L 919.227 1185.39 z"/>
<path transform="translate(0,0)" fill="rgb(255,255,254)" d="M 1160.47 1322.07 C 1169.73 1321.21 1180.04 1322.09 1189.23 1323.43 C 1182.55 1330.64 1172.12 1340.74 1164.5 1346.77 C 1160.76 1348.24 1143.21 1345.5 1137.66 1344.96 C 1145.45 1337.44 1153.7 1330.42 1160.47 1322.07 z"/>
<path transform="translate(0,0)" fill="rgb(255,255,254)" d="M 1179.59 1293.48 C 1190.29 1294 1198.96 1294.39 1209.63 1295.94 C 1204.63 1303.79 1201.62 1308.24 1195.76 1315.39 C 1195.31 1315.79 1194.86 1316.18 1194.4 1316.57 C 1187.39 1315.69 1173.57 1315.1 1167.2 1314.98 C 1172.34 1306.96 1175.66 1302.09 1179.59 1293.48 z"/>
<path transform="translate(0,0)" fill="rgb(255,255,254)" d="M 1130.29 1351.02 C 1137.75 1351.09 1147.8 1352.71 1155.1 1354.04 C 1143.57 1362.72 1131.27 1370.32 1118.35 1376.76 L 1101.81 1384.45 C 1110.63 1370.03 1118.49 1362.94 1130.29 1351.02 z"/>
<path transform="translate(0,0)" fill="rgb(18,17,15)" d="M 1217.59 953.343 C 1221.54 954.404 1220.21 953.295 1222.21 956.07 C 1221.35 959.194 1218.61 960.937 1216.04 963.192 L 1213.83 963.564 L 1213.09 961.989 C 1214.23 957.602 1214.85 957.129 1217.59 953.343 z"/>
<path transform="translate(0,0)" fill="rgb(18,17,15)" d="M 1054.74 1137.34 C 1059.59 1136.93 1065.22 1135.82 1069.2 1138.5 L 1069.48 1141.12 C 1064.17 1140.87 1057.83 1141.76 1054.74 1137.34 z"/>
<path transform="translate(0,0)" fill="rgb(32,32,30)" d="M 1209.08 722.934 C 1226.01 700.511 1227.52 681.029 1261.59 675.239 C 1283.14 671.577 1271.16 699.99 1267.31 709.833 C 1265.04 715.634 1261.37 721.771 1257.39 726.24 L 1252.97 728.791 C 1244.33 734.824 1237.22 735.518 1224.88 745.448 C 1236.68 742.528 1246.35 738.323 1257.51 733.734 C 1232.68 794.978 1217.83 774.579 1165.77 799.706 C 1183.86 798.241 1211.48 790.38 1228.93 784.669 C 1212.86 801.7 1200.11 803.366 1178.94 813.223 C 1194.02 810.906 1200.73 809.105 1215.07 803.852 C 1188.62 843.728 1191.45 830.681 1152.72 849.305 C 1170.18 848.914 1177.49 846.043 1193.6 839.876 C 1170.91 860.655 1159.35 858.975 1130.32 866.386 C 1119.37 869.169 1108.76 873.18 1098.71 878.342 C 1117.52 874.91 1156.9 865.961 1174.3 860.499 C 1152.23 899.852 1131.67 928.902 1087.08 940.714 C 1076.03 943.64 1055.75 948.816 1046.36 954.122 L 1045.08 954.854 C 1076.5 950.179 1100.07 946.136 1128.73 930.3 C 1115.32 955.3 1094.84 986.925 1072.86 1004.42 C 1052.89 1020.32 1020.17 1023.72 999.67 1038.96 C 1024.41 1034.81 1048.35 1026.84 1070.63 1015.34 C 1051.85 1039.2 1032.4 1041.7 1003.95 1048.96 C 996.535 1050.85 989.757 1051.95 982.901 1055.47 C 1006.14 1052.96 1027.67 1049.23 1049.28 1040.07 C 1035.19 1054.9 1019.61 1068.81 1000.87 1077.43 C 991.92 1081.54 983.18 1084.57 974.415 1089.27 L 973.128 1089.97 C 984.395 1090.34 995.612 1091.46 1006.84 1092.49 C 985.771 1097.92 975.341 1102.97 955.99 1112.68 C 971.213 1110.09 975.217 1111.35 989.522 1116.62 C 965.457 1117.12 971.94 1111.03 946.419 1123.26 C 955.52 1122.71 961.402 1122.52 970.471 1122.9 C 954.899 1127.34 953.347 1124.58 937.128 1133.62 C 948.785 1135.27 950.317 1135.67 960.366 1141.68 C 944.769 1138.39 941.856 1138.18 926.889 1143.39 C 917.732 1155.27 895.941 1204.69 891.553 1220.24 C 880.705 1258.67 870.242 1269.8 845.593 1301.35 C 828.533 1323.19 811.678 1350.77 794.492 1373.71 C 796.771 1367.24 799.812 1360.7 802.754 1354.48 C 831.59 1293.5 856.432 1231.05 889.419 1172.08 C 897.565 1157.52 907.077 1140.78 911.929 1125.05 C 914.54 1116.59 907.685 1106.41 903.159 1099.85 L 917.066 1107.49 C 916.862 1091.99 913.199 1079.28 910.21 1064.04 C 912.259 1067.35 922.314 1084.67 923.909 1085.46 C 925.758 1081.12 923.907 1072.51 923.043 1067.7 C 920.878 1055.67 921.55 1044.41 922.781 1032.31 C 925.678 1048.95 927.182 1060.42 933.486 1076.11 C 933.59 1039.36 919.732 1026.64 944.419 992.129 C 941.517 1007.41 943.624 1034.01 950.171 1048.02 C 947.415 1013.52 946.721 987.937 963.431 956.594 C 969.426 945.348 972.288 938.889 980.559 928.662 C 976.732 943.05 973.766 969.904 979.05 983.582 C 981.372 983.346 981.743 952.331 982.371 947.451 C 985.967 919.51 1000.35 901.993 1019.48 882.465 C 1014.22 902.726 1013.66 926.226 1015.95 947.043 C 1017.81 939.955 1019.56 922.498 1020.18 914.835 C 1023.31 876.417 1032.62 862.209 1057.13 833.881 C 1051.74 851.525 1049.52 866.54 1050.69 884.885 C 1054.11 872.364 1055.53 859.061 1059.38 845.941 C 1068.62 814.51 1103.74 787.273 1128.03 764.777 C 1122.99 780.763 1116.14 800.177 1113.64 816.494 C 1122.96 801.142 1126.27 783.463 1133.98 767.591 C 1141.17 752.794 1157.14 736.383 1171.16 728.079 C 1167.63 742.437 1161.16 756.056 1158.77 771.04 L 1159.3 770.181 C 1183.15 732.394 1165.18 719.354 1220.46 692.798 C 1216.52 703.403 1212.23 711.667 1209.08 722.934 z"/>
<path transform="translate(0,0)" fill="rgb(18,17,15)" d="M 1252.97 728.791 C 1249.86 726.22 1246.86 724.814 1247.58 720.675 C 1253.39 717.801 1255.48 721.831 1257.39 726.24 L 1252.97 728.791 z"/>
<path transform="translate(0,0)" fill="rgb(255,255,254)" d="M 1225.57 719.979 L 1226.33 720.581 C 1223.92 726.25 1157.85 794.006 1149.22 803.617 C 1119.96 836.772 1091.91 870.97 1065.12 906.145 C 1023.1 963.072 985.008 1022.79 951.104 1084.9 C 941.25 1103.05 931.582 1121.83 921.854 1139.98 C 917.574 1147.96 904.484 1179.27 900.047 1182.84 L 896.529 1182.01 L 893.07 1179.61 C 892.886 1179.11 892.412 1178.01 892.641 1177.53 C 962.304 1031 1050.13 893.092 1165.38 777.868 C 1182.97 760.277 1206.34 735.488 1225.57 719.979 z"/>
<path transform="translate(0,0)" fill="rgb(255,255,254)" d="M 886.042 1191.47 C 889.275 1192.98 893.245 1194.46 895.613 1196.95 L 894.885 1198.5 C 892.405 1198.81 891.229 1198.73 889.051 1199.92 C 880.141 1222.97 854.66 1267.24 841.7 1289.61 C 840.172 1292.27 839.838 1292.52 837.735 1294.81 L 837.187 1294.22 C 842.624 1279.65 852.981 1259.24 859.826 1244.82 C 867.688 1228.26 877.174 1207.22 886.042 1191.47 z"/>
<path transform="translate(0,0)" fill="rgb(255,255,254)" d="M 1111.44 917.181 L 1113.03 917.905 L 1112.36 919.832 C 1103.89 925.505 1084.39 929.628 1074.22 931.881 C 1072.21 931.835 1072.96 932.232 1071.82 931.107 C 1080.24 924.786 1100.92 919.536 1111.44 917.181 z"/>
<path transform="translate(0,0)" fill="rgb(18,17,15)" d="M 1021 980.595 L 1022.17 981.671 C 1023.19 985.086 1022.08 989.517 1021.52 993.185 L 1019.63 991.168 C 1018.74 987.529 1020.03 984.275 1021 980.595 z"/>
<path transform="translate(0,0)" fill="rgb(32,32,30)" d="M 814.153 1254.83 C 817.889 1264.08 822.726 1271.96 826.451 1281.11 C 827.283 1283.15 825.286 1285.96 824.208 1288.11 L 822.546 1287.63 C 808.281 1269.39 793.527 1218.04 791.65 1195.07 C 789.611 1170.12 789.645 1143.38 789.563 1118.14 C 789.437 1078.7 789.516 1039.26 789.799 999.815 L 789.785 909.242 C 789.843 881.847 788.924 855.708 794.476 828.672 C 802.139 790.89 818.996 755.578 843.555 725.862 C 885.543 674.492 941.262 647.429 1006.75 641.081 C 1006.7 643.372 1006.56 646.176 1006.67 648.417 C 942.252 655.089 889.954 680.117 848.573 731.122 C 816.864 769.7 798.734 817.642 796.979 867.548 C 796.04 891.953 797.536 916.875 796.227 941.278 C 813.882 923.878 828.524 904.217 846.013 886.695 C 858.707 873.976 869.245 859.416 881.633 846.475 C 883.968 844.028 887.88 840.456 891.385 840.363 C 900.071 843.354 905.396 849.238 912.988 854.055 L 913.932 853.04 C 926.461 839.417 936.141 822.32 947.675 807.914 C 961.499 790.647 977.332 774.627 991.202 757.319 C 997.042 750.032 1004.67 739.843 1013.8 737.264 C 1017.23 736.346 1020.1 739.79 1022.37 741.82 C 1032.35 753.042 1042.07 765.755 1051.42 777.565 C 1058.18 786.113 1068.23 796.988 1073.92 805.553 C 1063.96 817.983 1052.24 828.03 1043.27 838.912 C 1028.97 856.255 1029.97 862.643 1011.88 879.19 C 1007.3 870.51 997.634 854.312 1001.95 846.014 C 1014.66 821.597 1016.02 815.931 1008.38 790.077 C 1007.56 787.322 1011.28 759.183 1011.23 751.366 C 996.906 769.713 982.258 787.67 966.005 804.333 C 962.337 808.094 958.644 811.877 955.4 816.016 C 949.271 824.082 946.587 834.073 941.838 842.905 C 935.598 854.354 927.69 863.832 919.533 873.902 L 918.058 876.165 C 909.681 894.328 905.267 908.873 899.528 927.706 C 896.987 936.043 885.805 952.627 880.903 960.629 C 889.428 956.626 898.353 951.602 906.661 947.053 C 898.521 963.211 889.335 977.8 881.567 994.417 L 910.149 968.293 C 908.536 977.907 907.933 981.177 904.949 990.544 C 920.834 982.994 936.984 974.174 952.521 965.893 C 951.301 969.578 949.468 974.276 946.931 977.274 C 926.295 1001.67 915.29 1030.59 916.058 1062.3 C 912.805 1057.54 908.419 1050.5 903.003 1048.49 L 901.556 1049.57 C 900.269 1056.66 907.396 1078.74 909.32 1087.82 C 904.542 1082.55 896.023 1073.62 888.388 1072.88 C 889.441 1076.85 904.531 1090.81 908.404 1094.81 C 898.691 1092.7 889.158 1092.84 879.27 1092.67 C 923.397 1116.73 899.821 1138.88 880.569 1173.42 C 860.831 1164.93 839.458 1158.53 817.835 1157.84 C 812.698 1157.68 801.336 1156.55 797.164 1159.43 L 797.103 1163.26 C 800.123 1167.42 806.91 1165.19 813.13 1165.13 C 835.008 1164.95 857.036 1171.72 876.992 1179.89 C 873.841 1184.76 871.032 1189.91 868.179 1194.97 C 842.651 1187.84 824.065 1184.68 797.859 1185.01 C 798.666 1194.24 799.309 1200.83 801.008 1209.89 C 813.468 1209.36 825.899 1209.94 838.246 1211.61 C 844.142 1212.4 854.477 1212.5 854.647 1220.09 C 851.138 1222.91 841.432 1219.28 836.518 1218.42 C 824.661 1216.34 814.278 1216.39 802.327 1217.05 C 804.947 1227.44 807.877 1238.2 811.54 1248.25 C 820.738 1247.92 829.591 1246.89 838.076 1250.65 L 838.486 1251.95 C 832.38 1255.89 821.468 1254.91 814.153 1254.83 z"/>
<path transform="translate(0,0)" fill="rgb(18,17,15)" d="M 918.058 876.165 C 913.64 873.885 912.383 869.056 914.687 864.589 L 916.353 864.702 C 918.886 867.568 918.87 870.082 919.533 873.902 L 918.058 876.165 z"/>
<path transform="translate(0,0)" fill="rgb(255,255,254)" d="M 886.547 857.59 C 888.677 858.712 887.894 857.89 888.916 860.036 C 886.722 884.275 883.289 885.014 872.661 906.127 C 871.313 908.804 868.406 916.967 869.543 919.982 C 872.445 919.786 872.905 919.517 875.628 920.343 C 876.977 923.653 876.233 923.865 875.514 927.858 C 870.028 958.293 833.007 979.53 807.103 994.649 C 812.672 987.053 817.954 978.802 823.165 970.922 C 826.007 966.201 827.5 962.558 829.699 957.55 C 820.096 961.059 805.994 971.12 797.045 977.03 C 804.385 964.336 815.676 950.614 823.879 937.739 C 830.309 927.648 836.344 915.145 842.58 905.982 C 845.302 901.983 860.199 893.75 865.393 887.123 C 872.869 877.586 878.546 865.985 886.547 857.59 z"/>
<path transform="translate(0,0)" fill="rgb(32,32,30)" d="M 1249.74 767.424 L 1251.56 768.414 C 1262.48 784.268 1271.23 825.425 1273.19 844.114 C 1275.19 863.199 1275 883.87 1275.01 903.206 L 1274.99 977.439 C 1274.97 1042.4 1275.24 1107.36 1274.87 1172.32 C 1274.47 1241.36 1245.07 1308.77 1194.97 1356.25 C 1146.26 1402.59 1080.93 1427.34 1013.75 1424.91 C 941.733 1422.53 884.155 1392.61 835.519 1340.74 L 832.892 1337.1 C 832.661 1333.37 832.038 1333.63 833.7 1331.09 C 838.27 1331.66 843.92 1339.12 847.537 1342.81 C 856.144 1351.72 865.338 1360.05 875.058 1367.73 C 893.463 1382.23 913.991 1393.82 935.922 1402.08 C 996.524 1425.51 1064.02 1423.46 1123.09 1396.41 C 1158.03 1380.61 1188.67 1356.66 1212.44 1326.56 C 1243.95 1287.24 1263.04 1239.43 1267.25 1189.21 C 1268.81 1169.88 1268.18 1145.88 1268.18 1126.19 L 1268.15 1025.58 L 1268.24 918.127 C 1268.24 894.41 1268.91 867.022 1266.3 843.778 C 1264.39 827.39 1260.87 811.228 1255.81 795.526 C 1253.53 788.637 1249.46 781.606 1247.83 774.533 C 1247.32 772.324 1248.78 769.943 1249.74 767.424 z"/>
<path transform="translate(0,0)" fill="rgb(32,32,30)" d="M 1010.24 621.506 C 1064.99 618.659 1119.16 633.868 1164.42 664.796 C 1170.93 669.186 1197.05 687.934 1198.44 695.114 L 1196.55 697.074 C 1195.89 697.262 1195.23 697.45 1194.57 697.639 C 1186.8 691.067 1174.05 680.141 1166.22 674.697 C 1121.26 643.445 1077.43 628.584 1022.99 628.316 C 958.561 628.126 896.698 653.566 851.04 699.029 C 807.312 742.754 780.258 801.608 777.466 863.204 C 776.203 891.07 777.048 923.502 777.053 951.801 L 777.082 1095.5 C 777.087 1157.01 772.604 1216.36 800.195 1272.93 C 804.357 1281.47 814.665 1298.86 815.452 1307.46 L 814.203 1308.39 C 807.988 1304.58 803.061 1294.41 799.771 1287.98 C 783.371 1256.59 773.723 1222.12 771.45 1186.79 C 770.205 1169.14 770.719 1147.77 770.735 1129.87 L 770.831 1039.41 L 770.685 931.63 C 770.625 892.162 768.255 850.988 778.277 812.584 C 806.91 702.86 898.279 629.208 1010.24 621.506 z"/>
<path transform="translate(0,0)" fill="rgb(32,32,30)" d="M 986.484 820.737 L 987.046 821.277 C 987.837 824.343 986.101 828.793 985.209 832.249 C 986.446 835.98 988.398 840.505 989.879 844.234 C 983.056 858.648 974.5 865.657 967.498 878.339 C 969.415 880.251 971.315 882.18 973.199 884.125 C 987.775 899.278 965.393 913.072 954.35 923.183 L 953.524 923.464 C 954.323 916.45 963.767 907.708 962.266 898.006 C 961.293 891.722 953.565 886.861 953.681 882.558 C 954.018 870.02 970.772 859.479 978.505 846.893 L 979.237 845.677 C 975.622 832.607 977.614 830.315 986.484 820.737 z"/>
<path transform="translate(0,0)" fill="rgb(32,32,30)" d="M 1040.21 641.144 C 1089.36 646.75 1143.24 665.174 1179.58 702.182 C 1181.24 703.871 1182 705.55 1181.97 707.875 C 1180.74 708.497 1178.88 709.397 1177.58 708.31 C 1135.96 673.452 1096.12 653.764 1040.11 648.152 L 1040.21 641.144 z"/>
<path transform="translate(0,0)" fill="rgb(32,32,30)" d="M 852.43 754.405 C 858.793 756.048 902.391 781.702 909.342 788.501 C 909.983 789.128 908.909 792.276 908.574 793.658 C 902.772 792.72 857.141 765.325 851.969 760.673 C 850.74 757.552 851.165 758.469 852.43 754.405 z"/>
<path transform="translate(0,0)" fill="rgb(32,32,30)" d="M 890.876 709.8 C 900.822 713.761 925.692 746.572 934.112 756.4 C 935.829 758.404 934.614 760.961 933.938 763.094 C 928.53 761.055 893.881 722.259 889.329 716.164 C 888.922 712.385 888.949 713.692 890.876 709.8 z"/>
<path transform="translate(0,0)" fill="url(#Gradient2)" d="M 826.386 806.446 C 836.539 808.928 883.172 818.717 889.108 822.226 C 890.588 825.761 890.212 823.826 889.032 828.419 C 878.867 825.857 831.119 816.629 826.171 813.097 C 824.903 809.919 825.45 810.522 826.386 806.446 z"/>
<path transform="translate(0,0)" fill="rgb(32,32,30)" d="M 1106.42 682.402 C 1109.53 683.981 1110.01 684.081 1110.94 687.161 C 1109.64 692.871 1085.62 736.134 1081.23 744.227 C 1078.42 743.356 1078.54 743.486 1076.27 741.667 C 1075.51 737.742 1102.13 689.057 1106.42 682.402 z"/>
<path transform="translate(0,0)" fill="rgb(32,32,30)" d="M 938.523 678.453 C 940.938 679.022 942.573 679.599 943.962 682.421 C 952.577 699.912 962.731 718.27 969.44 736.479 C 969.187 737.476 968.935 738.472 968.683 739.469 C 958.754 738.826 944.425 696.643 938.404 687.662 C 936.232 684.424 937.184 681.691 938.523 678.453 z"/>
<path transform="translate(0,0)" fill="url(#Gradient1)" d="M 1049.76 663.24 C 1052.42 663.661 1052.37 663.493 1054.54 665.016 C 1056.74 669.731 1045.41 722.315 1043.44 729.292 C 1039.34 729.104 1040.91 729.882 1038.24 727.663 C 1037.24 722.493 1047.51 669.91 1049.76 663.24 z"/>
<path transform="translate(0,0)" fill="rgb(18,17,15)" d="M 994.759 661.449 C 996.29 662.256 998.284 662.707 998.708 665.537 C 1001.67 685.279 1004.19 706.432 1005.36 726.349 C 1004.82 727.336 1004.28 728.323 1003.74 729.31 C 996.88 725.751 990.035 667.5 994.759 661.449 z"/>
<path transform="translate(0,0)" fill="rgb(32,32,30)" d="M 1149.02 718.608 C 1152.18 719.843 1150.93 718.89 1152.99 721.48 C 1152.41 726.419 1118.19 758.456 1111.64 764.862 C 1109.04 763.514 1108.84 763.73 1107.46 761.245 C 1108.7 756.406 1143.16 723.33 1149.02 718.608 z"/>
<path transform="translate(0,0)" fill="rgb(18,17,15)" d="M 1006.75 641.081 C 1018.14 640.915 1028.8 640.807 1040.21 641.144 L 1040.11 648.152 C 1029.26 647.589 1017.49 647.855 1006.67 648.417 C 1006.56 646.176 1006.7 643.372 1006.75 641.081 z"/>
</svg>