<?xml version="1.0" standalone="no"?>
<!DOCTYPE svg PUBLIC "-//W3C//DTD SVG 20010904//EN"
 "http://www.w3.org/TR/2001/REC-SVG-20010904/DTD/svg10.dtd">
<svg version="1.0" xmlns="http://www.w3.org/2000/svg"
 width="1024.000000pt" height="1024.000000pt" viewBox="0 0 1024.000000 1024.000000"
 preserveAspectRatio="xMidYMid meet">

<g transform="translate(0.000000,1024.000000) scale(0.100000,-0.100000)"
fill="#000000" stroke="none">
<path d="M4835 7119 c-99 -15 -234 -58 -340 -109 -205 -99 -373 -247 -504
-446 -82 -123 -122 -216 -164 -374 l-30 -115 -1 -905 c-1 -1002 -3 -960 66
-1165 29 -87 102 -236 138 -282 l18 -23 21 58 22 57 -45 90 c-72 145 -133 362
-109 386 12 12 178 -3 286 -26 39 -8 75 -15 80 -15 4 0 15 16 24 36 15 30 15
36 3 44 -39 24 -184 53 -290 59 -93 5 -115 9 -115 21 0 13 19 15 115 14 94 -2
131 -7 205 -29 50 -15 98 -28 108 -29 26 -1 128 174 135 231 6 54 -24 105 -78
130 -22 10 -40 21 -40 26 0 10 49 9 89 -3 19 -5 37 -7 40 -5 3 3 -16 27 -42
53 -26 26 -47 51 -47 55 0 11 41 -12 74 -42 25 -23 28 -24 23 -6 -16 59 -38
177 -34 181 2 3 20 -13 39 -34 l36 -39 4 76 c3 46 11 89 21 106 9 17 26 56 38
88 11 32 36 77 55 100 39 49 67 97 61 103 -2 3 -31 -10 -63 -29 -90 -52 -153
-81 -160 -74 -4 3 -2 25 4 49 6 23 9 44 7 46 -2 2 -36 -27 -76 -65 l-73 -68
36 65 c19 36 47 87 63 113 15 26 25 51 22 54 -3 3 -31 -9 -61 -27 -31 -17 -56
-29 -56 -25 0 4 13 25 29 48 45 66 69 119 87 193 21 87 62 171 125 254 28 36
68 103 90 150 29 59 57 100 93 135 29 28 92 98 140 158 48 59 89 107 92 107 2
0 3 -55 2 -122 0 -68 2 -143 6 -168 6 -38 2 -57 -23 -117 -17 -40 -31 -84 -31
-98 0 -20 40 -116 56 -134 7 -8 80 64 91 92 17 39 98 139 172 212 34 33 61 64
61 70 0 7 -12 22 -26 36 -14 13 -78 88 -141 166 -63 78 -124 145 -136 149 -16
5 -32 -6 -76 -52 -118 -125 -271 -303 -325 -378 -84 -117 -116 -156 -129 -156
-7 0 -30 14 -51 30 -22 17 -48 30 -58 30 -17 0 -56 -38 -179 -177 -173 -194
-303 -333 -312 -333 -6 0 -7 100 -4 268 5 297 16 370 78 519 71 169 152 286
290 417 152 143 326 235 528 279 147 32 372 29 504 -6 187 -50 333 -128 490
-262 l77 -67 34 29 c19 15 35 31 35 35 2 15 -160 155 -234 203 -138 89 -320
159 -478 185 -74 12 -297 11 -382 -1z m-461 -1221 c-4 -32 -22 -87 -46 -137
-22 -47 -44 -97 -48 -112 -8 -26 -7 -27 17 -18 24 9 24 8 18 -23 -11 -52 -42
-116 -77 -160 -29 -37 -244 -188 -268 -188 -5 0 15 34 45 76 80 111 76 117
-33 50 -40 -25 -72 -42 -72 -38 1 4 34 52 75 107 41 55 91 130 112 168 27 50
54 82 98 116 38 30 80 78 115 129 30 45 58 82 62 82 4 0 5 -24 2 -52z"/>
<path d="M4906 6921 c-3 -5 -2 -33 4 -62 5 -30 14 -98 21 -152 11 -93 19 -114
37 -103 5 3 1 72 -9 153 -10 81 -18 154 -18 161 -1 14 -27 16 -35 3z"/>
<path d="M5196 6912 c-3 -5 -17 -73 -31 -152 -25 -137 -26 -185 -5 -164 12 12
71 305 64 316 -7 10 -21 10 -28 0z"/>
<path d="M6260 6846 c-103 -30 -137 -58 -195 -159 -41 -72 -46 -62 -10 19 14
32 24 59 21 61 -2 2 -45 -24 -96 -58 -101 -67 -103 -71 -165 -236 -15 -40 -31
-73 -36 -73 -12 0 -13 -6 21 95 16 49 28 90 26 92 -6 6 -114 -87 -139 -120
-31 -41 -60 -98 -91 -179 -43 -112 -46 -121 -51 -116 -6 5 41 182 55 209 22
41 -11 14 -147 -118 -161 -157 -183 -191 -212 -345 -9 -50 -20 -85 -23 -76 -6
15 5 127 18 185 l6 28 -26 -30 c-15 -16 -48 -63 -76 -104 -54 -80 -73 -145
-86 -286 -3 -44 -11 -89 -15 -100 -11 -24 -5 231 5 260 10 28 -67 -58 -110
-123 -54 -80 -75 -152 -82 -272 -4 -68 -8 -96 -13 -80 -11 39 -10 196 1 226
22 58 -17 4 -67 -93 -71 -136 -83 -183 -84 -332 -1 -123 -2 -125 -14 -76 -7
28 -14 88 -15 135 l-1 85 -32 -60 c-28 -53 -31 -69 -32 -145 0 -47 3 -112 8
-145 10 -82 -8 -50 -34 58 l-19 82 5 -135 5 -135 -35 55 c-39 62 -41 59 -20
-20 8 -30 15 -74 15 -97 l0 -42 -34 20 -34 20 25 -48 c17 -33 23 -58 19 -81
-3 -18 -57 -127 -121 -242 -63 -115 -129 -240 -146 -277 -46 -99 -223 -491
-279 -615 -27 -60 -47 -108 -45 -108 2 0 37 48 77 108 40 59 128 181 196 271
68 90 129 176 137 191 8 15 37 90 66 166 28 77 80 198 115 271 50 104 70 136
93 148 35 18 103 20 134 3 20 -10 21 -10 8 5 -7 9 -31 22 -53 29 l-40 12 28
14 c16 8 52 15 81 16 58 0 50 16 -9 16 -21 0 -38 4 -38 10 0 11 90 39 134 42
17 1 2 4 -34 7 l-65 6 105 42 c58 23 112 43 120 46 8 2 -20 8 -63 12 -43 4
-75 11 -70 15 4 4 41 20 82 35 40 15 105 49 145 76 73 49 168 139 131 124 -61
-24 -178 -53 -235 -59 -60 -5 -55 -3 62 29 156 42 204 62 257 110 48 43 48 54
0 29 -68 -34 -294 -102 -306 -91 -8 8 32 27 161 74 146 53 214 92 273 158 45
52 203 281 203 296 0 5 -15 0 -32 -10 -65 -37 -329 -109 -360 -99 -7 3 48 24
122 47 176 56 248 89 305 142 44 41 135 160 185 243 l24 39 -25 -7 c-67 -20
-332 -77 -336 -72 -6 5 136 50 212 66 92 20 170 51 205 82 22 19 28 28 15 23
-25 -9 -145 -35 -163 -35 -24 0 -2 18 31 25 17 4 63 21 101 38 60 27 76 40
117 96 26 36 47 66 46 68 -2 1 -29 -7 -62 -18 -104 -34 -106 -16 -3 24 66 26
101 46 113 63 16 25 16 26 -2 21 -139 -41 -276 -70 -267 -56 3 5 44 20 92 34
142 42 197 65 234 95 43 35 132 198 102 185 -138 -57 -171 -57 -63 1 82 45
117 86 144 171 9 28 15 69 13 90 -4 45 -18 49 -88 29z m-195 -268 c-22 -24
-90 -95 -151 -158 -420 -435 -780 -898 -1074 -1380 -101 -165 -265 -463 -335
-607 -50 -103 -69 -133 -84 -133 -11 0 -23 5 -26 10 -7 12 179 369 323 620
300 523 671 1002 1116 1443 138 136 255 247 260 247 6 0 -8 -19 -29 -42z
m-540 -957 c-6 -6 -48 -19 -95 -31 -47 -12 -91 -23 -97 -25 -21 -7 -15 3 9 16
55 30 205 62 183 40z m-1120 -1391 c18 -19 17 -20 -6 -20 -21 0 -34 -19 -96
-143 -76 -149 -185 -338 -191 -332 -2 2 51 119 119 259 127 267 136 278 174
236z"/>
<path d="M4625 6840 c-4 -7 125 -282 141 -299 3 -3 9 0 15 6 8 8 -8 51 -59
157 -66 137 -82 160 -97 136z"/>
<path d="M5406 6680 c-42 -77 -76 -143 -76 -145 0 -3 8 -5 18 -5 13 0 39 39
90 133 74 138 82 157 58 157 -7 0 -48 -63 -90 -140z"/>
<path d="M4381 6673 c0 -10 49 -70 109 -133 80 -84 112 -112 120 -104 9 9 -17
44 -96 133 -102 116 -135 141 -133 104z"/>
<path d="M5602 6547 c-97 -97 -118 -127 -90 -127 17 0 218 201 218 217 0 29
-31 8 -128 -90z"/>
<path d="M4184 6459 c-10 -16 8 -29 154 -112 105 -60 134 -73 139 -61 3 8 4
16 2 18 -9 8 -278 166 -283 166 -3 0 -8 -5 -12 -11z"/>
<path d="M6151 6289 c-17 -28 -31 -57 -31 -65 0 -8 9 -47 21 -87 25 -86 37
-322 29 -577 l-5 -165 -23 30 c-55 70 -324 355 -335 355 -7 0 -28 -24 -47 -52
-19 -29 -49 -67 -66 -85 -17 -18 -31 -38 -31 -45 0 -34 -176 -286 -269 -386
-19 -20 -43 -53 -54 -72 -52 -100 -219 -259 -335 -320 l-57 -30 53 0 c83 0 89
-13 21 -43 -32 -15 -85 -33 -117 -40 l-57 -13 41 -18 c22 -10 48 -28 58 -38
18 -20 17 -20 -29 -13 -25 4 -61 4 -78 0 l-32 -7 33 -34 c18 -18 30 -36 27
-40 -3 -3 -23 -1 -45 5 -21 6 -53 11 -72 11 l-35 0 23 -21 c22 -21 56 -87 49
-95 -2 -2 -26 8 -53 21 -52 27 -94 31 -127 14 -19 -10 -119 -205 -133 -260 -6
-24 -2 -27 97 -66 249 -98 390 -134 537 -134 130 0 207 13 481 84 233 60 236
60 382 61 80 1 150 -2 154 -6 4 -5 2 -25 -4 -47 l-12 -38 -157 -6 c-261 -9
-535 -72 -873 -203 -389 -149 -519 -181 -703 -170 -62 3 -126 9 -143 12 -23 4
-33 2 -37 -9 -9 -23 76 -38 216 -38 187 0 306 28 582 136 393 154 675 224 973
241 137 8 135 9 102 -63 l-19 -43 -93 0 c-248 0 -525 -64 -928 -214 -108 -41
-234 -83 -281 -95 -108 -27 -283 -42 -402 -34 -89 5 -93 6 -130 42 l-38 36
-25 -30 c-13 -16 -24 -37 -24 -47 0 -23 128 -139 229 -206 214 -143 460 -210
731 -199 312 12 597 140 820 366 177 180 276 358 338 611 l26 105 3 840 c4
928 3 950 -57 1138 -17 53 -32 97 -34 97 -2 0 -17 -23 -35 -51z m-237 -787
c63 -83 111 -152 108 -152 -3 0 -29 14 -59 30 -33 19 -53 25 -53 18 0 -7 16
-42 35 -77 19 -36 33 -66 31 -69 -5 -4 -109 64 -170 112 l-39 30 6 -37 c3 -20
3 -37 0 -37 -14 0 -133 113 -133 126 0 8 15 31 33 51 32 34 35 36 67 25 18 -7
36 -10 38 -7 3 3 -2 21 -11 40 -9 20 -17 41 -17 48 0 18 30 59 41 55 5 -2 61
-72 123 -156z m-434 -451 c0 -5 -16 -19 -36 -30 -47 -28 -38 -39 70 -81 90
-34 131 -66 120 -93 -3 -9 -41 -37 -85 -62 -98 -57 -102 -74 -29 -128 105 -78
91 -112 -83 -202 -140 -73 -157 -88 -157 -131 0 -39 20 -57 150 -140 105 -66
104 -68 -18 -90 -124 -22 -173 -19 -218 14 -63 46 -133 130 -140 168 -15 81
32 123 233 207 152 64 173 76 173 98 0 9 -22 35 -50 58 -80 67 -66 104 63 169
69 35 93 55 83 70 -3 6 -36 22 -73 37 -127 50 -141 73 -71 118 43 27 68 34 68
18z m-805 -805 c100 -30 238 -56 295 -56 26 0 40 -5 44 -16 4 -9 4 -19 1 -22
-18 -18 -344 44 -446 84 -39 16 -46 24 -32 38 9 9 22 6 138 -28z m1388 23 c41
-6 79 -14 86 -18 16 -10 2 -44 -15 -37 -46 18 -161 28 -263 24 -96 -5 -133
-11 -214 -38 -76 -25 -101 -30 -110 -21 -16 16 0 26 98 56 149 45 273 56 418
34z m-33 -377 c0 -4 -13 -28 -29 -53 l-29 -46 -118 -6 c-208 -11 -429 -59
-719 -154 -77 -25 -142 -47 -144 -49 -2 -2 -1 -10 2 -18 5 -12 28 -8 137 29
179 60 422 121 555 139 135 18 255 26 255 16 0 -4 -18 -27 -40 -52 -39 -44
-40 -45 -117 -51 -80 -6 -260 -41 -399 -76 -145 -37 -378 -80 -493 -92 -124
-13 -420 -7 -485 10 -22 5 -50 20 -63 34 l-25 24 164 6 c186 7 297 29 476 98
396 150 644 217 902 242 73 7 170 7 170 -1z m-210 -281 c0 -11 -75 -75 -153
-129 -52 -36 -61 -39 -90 -31 -57 16 -136 10 -316 -26 -208 -42 -356 -65 -428
-65 -39 0 -53 -4 -53 -14 0 -34 150 -22 430 33 232 47 363 61 340 38 -29 -28
-186 -86 -290 -107 -91 -19 -127 -21 -265 -17 -157 5 -235 19 -351 60 -53 20
-164 76 -164 84 0 3 45 3 101 0 208 -13 466 19 799 98 157 37 268 60 390 78
45 7 50 7 50 -2z"/>
<path d="M4050 6186 c0 -17 -4 -16 174 -56 133 -30 183 -33 159 -9 -10 10
-290 79 -320 79 -7 0 -13 -6 -13 -14z"/>
<path d="M4850 6096 c-13 -22 -20 -48 -18 -70 2 -37 -1 -41 -79 -128 -50 -55
-55 -88 -18 -120 31 -27 31 -46 -1 -109 -14 -28 -23 -53 -21 -55 8 -8 127 127
127 144 0 10 -14 31 -30 47 -17 16 -29 34 -26 41 2 6 28 44 57 83 50 69 52 74
41 105 -7 18 -9 47 -6 64 8 41 1 40 -26 -2z"/>
</g>
</svg>
