<svg xmlns="http://www.w3.org/2000/svg" version="1.1" style="display: block;" viewBox="0 0 1460 1840" width="365" height="460" preserveAspectRatio="none">
<defs>
	<linearGradient id="Gradient1" gradientUnits="userSpaceOnUse" x1="741.398" y1="276.975" x2="812.472" y2="243.617">
		<stop class="stop0" offset="0" stop-opacity="1" stop-color="#191917"/>
		<stop class="stop1" offset="1" stop-opacity="1" stop-color="#191917"/>
	</linearGradient>
	<linearGradient id="Gradient2" gradientUnits="userSpaceOnUse" x1="377.855" y1="527.166" x2="419.722" y2="478.328">
		<stop class="stop0" offset="0" stop-opacity="1" stop-color="#191917"/>
		<stop class="stop1" offset="1" stop-opacity="1" stop-color="#191917"/>
	</linearGradient>
</defs>
<path transform="translate(0,0)" fill="#191917" d="M 1149.28 457.408 C 1151.25 453.219 1153.93 446.46 1157.24 443.668 C 1158.87 443.298 1159.41 442.668 1160.69 443.674 C 1163.58 445.908 1164.88 450.484 1166.02 453.837 C 1177.86 488.695 1187.93 524.3 1191.83 561.023 C 1196.87 608.58 1195.91 656.924 1195.9 704.701 L 1195.5 908.457 L 1195.6 1098.26 C 1195.85 1157.98 1198.04 1238.9 1186.37 1295.86 C 1170.81 1372.19 1137.47 1443.78 1089.05 1504.8 C 1013.74 1600.82 903.031 1662.57 781.766 1676.19 C 665.743 1689.4 542.771 1657.3 450.817 1584.43 C 427.383 1565.86 386.027 1529 370.306 1503.54 C 373.28 1500.2 375.178 1497.39 379.268 1495.78 C 382.141 1496.32 382.898 1497.16 384.876 1499.42 C 404.534 1521.89 424.019 1541.47 446.565 1561.24 C 458.642 1555.99 470.143 1548.91 482.174 1543.13 C 502.556 1533.33 529.791 1523.99 549.313 1513.94 C 510.649 1498.06 457.66 1484.05 415.544 1483.66 C 411.169 1483.62 395.967 1483.79 390.975 1483.92 C 390.66 1483.31 390.345 1482.7 390.031 1482.09 C 390.74 1477.21 393.544 1473.48 396.388 1469.45 C 402.503 1469.94 408.102 1470.03 414.202 1470.11 C 470.014 1470.93 518.968 1487.05 569.9 1507.53 C 584.364 1503.73 598.205 1497.34 612.374 1492.79 C 636.681 1484.98 661.12 1477.42 685.411 1469.55 C 664.901 1466.65 637.72 1463.95 618.232 1459.09 C 577.105 1448.84 535.57 1432.49 496.489 1416.29 C 485.664 1411.8 458.847 1403.24 450.519 1398.73 C 449.357 1393.91 453.763 1390.55 456.908 1387.1 C 531.335 1410.19 597.111 1449.64 677.111 1454.56 C 711.05 1456.65 738.354 1459.16 770.908 1445.2 C 794.872 1435.76 824.134 1426.7 839.304 1404.11 C 706.084 1428.39 599.002 1403.38 478.804 1342.89 C 473.032 1339.99 477.231 1333.26 479.036 1328.58 C 515.616 1344.05 559.608 1364.01 596.742 1376.97 C 652.291 1396.35 722.065 1403.72 780.336 1399.03 C 789.015 1398.33 832.094 1394.14 839.704 1391.14 C 849.257 1380.87 815.251 1355.57 807.439 1350.08 C 700.832 1361.66 628.483 1338.15 532.626 1294.58 C 528.88 1293.09 525.582 1291.51 521.945 1289.78 C 513.911 1286.34 503.277 1281.46 495.127 1279.01 C 506.257 1253.5 531.734 1170.56 556.939 1160.95 C 569.027 1156.35 585.064 1159.18 596.517 1164.39 C 606.143 1168.76 614.477 1175.66 624.175 1179.78 C 619.885 1160.26 612.432 1142.32 594.844 1131.11 C 594.207 1130.7 593.563 1130.3 592.914 1129.91 C 603.077 1129.35 614.075 1128.38 623.991 1130.83 C 635.262 1133.61 645.491 1138.18 657.141 1140.06 C 651.455 1129.96 639.162 1117.45 628.966 1112.27 C 661.434 1100.34 660.482 1106.53 690.064 1107.04 C 674.763 1089.84 663.797 1085.65 642.496 1078.35 C 669.697 1074.39 716.717 1057.3 739.919 1043.1 C 722.377 1041.14 701.285 1038.28 683.958 1037.21 C 745.651 1013.2 787.81 965.929 828.236 914.972 C 836.575 903.596 841.043 891.308 849.883 880.174 C 858.318 869.548 869.54 860.535 877.833 849.962 C 908.468 810.905 937.411 769.231 961.955 726.09 C 964.872 720.962 960.961 714.775 964.916 710.013 L 965.791 708.943 C 971.505 702.091 980.353 695.927 985.967 688.997 C 997.684 674.534 1007.52 655.265 1018.86 640.969 C 1030.09 649.465 1039.59 662.06 1049.26 672.375 C 1093.41 719.454 1135.83 767.728 1180.68 814.181 C 1182.01 763.917 1180.82 713.53 1181.17 663.203 C 1181.6 602.953 1179.89 542.672 1161.31 484.714 C 1158.15 474.852 1155.16 466.053 1149.28 457.408 z"/>
<path transform="translate(0,0)" fill="rgb(25,25,23)" d="M 521.945 1289.78 C 522 1289.73 526.692 1283.46 529.202 1280.88 C 532.314 1282.18 532.044 1291.85 532.626 1294.58 C 528.88 1293.09 525.582 1291.51 521.945 1289.78 z"/>
<path transform="translate(0,0)" fill="rgb(255,255,255)" d="M 885.066 930.929 C 888.552 932.897 887.546 931.728 889.277 935.15 C 887.619 943.577 870.791 947.55 864.866 956.455 C 863.371 972.75 961.065 990.125 950.361 1014.05 C 938.646 1040.23 891.477 1038.4 883.044 1072.56 C 894.325 1089.7 942.127 1106.77 932.821 1127.95 C 912.387 1174.46 819.948 1171.32 807.287 1225.33 C 809.377 1232.46 812.21 1238.94 817.816 1244.19 C 839.578 1264.33 867.651 1277.8 893.124 1292.83 C 938.482 1319.59 1002.01 1342.3 1021.09 1396.57 C 1039.57 1449.11 983.26 1500.06 948.976 1532 C 908.837 1569.4 869.817 1600.88 844.31 1650.77 C 749.203 1671.5 682.118 1672.25 587.5 1641.95 C 540.323 1625.72 509.266 1607.78 468.23 1580.33 C 503.644 1556.49 540.465 1544.68 579.682 1530.05 C 626.376 1512.62 672.987 1500.04 720.24 1485.15 C 762.747 1471.76 874.626 1449.22 870.332 1390.56 C 867.539 1352.41 800.02 1324.04 773.1 1303.23 C 629.233 1184.53 843.29 1172.94 883.992 1122.41 C 879.331 1100.38 846.078 1092.84 841.834 1074.8 C 833.857 1040.88 906.349 1030.5 917.817 1011.76 C 928.835 993.763 846.303 982.516 844.417 964.448 C 841.54 946.226 875.151 934.495 885.066 930.929 z"/>
<path transform="translate(0,0)" fill="rgb(255,255,255)" d="M 1009.41 690.444 C 1012.56 691.614 1017.21 694.584 1019.24 697.328 C 1049.56 738.182 1078.71 778.201 1111.08 817.573 C 1091.75 810.88 1075.81 800.194 1058.22 789.776 C 1062.94 800.909 1067.79 811.771 1073.08 822.628 C 1075.84 828.299 1088.11 849.279 1087.29 853.816 L 1085.52 854.595 C 1080.52 853.07 1074.39 848.374 1069.89 845.302 C 1047.8 830.606 1027.27 814.212 1005.07 799.891 C 1005.3 809.13 1006.16 819.414 1006.76 828.719 C 994.227 818.968 961.122 789.161 953.579 776.607 C 962.766 761.787 966.522 753.565 981.119 743.901 C 994.394 746.388 999.127 748.103 1011.37 753.054 C 1007.54 741.677 1002.04 728.612 997.85 716.759 C 1001.04 706.145 1003.63 699.861 1009.41 690.444 z"/>
<path transform="translate(0,0)" fill="rgb(255,255,255)" d="M 1068.69 1285.45 C 1105.24 1283.31 1136.18 1289.71 1170.89 1299.19 C 1168.78 1310.27 1163.91 1329.9 1160.26 1340.3 C 1131.59 1332.05 1104.94 1330.06 1075.24 1329.15 C 1053.82 1329.02 1026.71 1329.74 1005.88 1334.08 C 995.023 1323.06 976.912 1311.69 963.718 1302.75 C 990.41 1292.84 1040.01 1286.53 1068.69 1285.45 z"/>
<path transform="translate(0,0)" fill="rgb(255,255,255)" d="M 1051.72 1342.44 C 1077.75 1340.62 1132.11 1344.58 1156.23 1352.67 C 1151.2 1366.46 1145.43 1380.49 1140 1394.17 C 1136.75 1393.11 1132.12 1392.22 1128.7 1391.45 C 1106.91 1385.72 1067.34 1384.34 1045.06 1385.73 C 1038.36 1370.17 1029.21 1357.63 1017.67 1345.42 C 1029 1344.16 1040.35 1343.17 1051.72 1342.44 z"/>
<path transform="translate(0,0)" fill="rgb(255,255,255)" d="M 1044.61 1242.43 C 1075.61 1238.67 1149.31 1249.8 1178.63 1260.92 C 1178.33 1265.48 1176.9 1271.14 1175.9 1275.71 C 1126.6 1262.4 1088.48 1255.83 1036.75 1259.05 C 994.333 1262.46 962.004 1271.4 922.223 1286.46 C 918.468 1283.4 914.933 1279.42 911.58 1275.86 C 945.893 1257.17 1006.27 1245.41 1044.61 1242.43 z"/>
<path transform="translate(0,0)" fill="rgb(255,255,255)" d="M 1048.76 1398.22 C 1077.37 1396.85 1106.01 1399.89 1133.69 1407.24 C 1128.65 1417.82 1123.86 1426.32 1117.97 1436.43 C 1115.65 1440.34 1113.62 1443.4 1111.03 1447.14 C 1091.71 1443.37 1068.33 1442.66 1048.59 1442.15 C 1051.76 1427.78 1050.42 1412.62 1048.76 1398.22 z"/>
<path transform="translate(0,0)" fill="rgb(255,255,255)" d="M 523.92 1238.74 C 551.206 1248.2 579.142 1258.42 607.062 1265.71 C 643.169 1275.15 674.723 1278.09 711.686 1280.34 C 712.858 1284.92 715.319 1290.73 712.433 1294.69 L 709.249 1294.94 C 642.828 1292.53 577.436 1277.78 516.41 1251.45 C 518.754 1247.05 521.31 1242.98 523.92 1238.74 z"/>
<path transform="translate(0,0)" fill="rgb(255,255,255)" d="M 1013.58 1511.35 C 1023.39 1510.26 1053.15 1513.5 1062.8 1514.68 C 1050.2 1528.01 1023.02 1555.69 1008.43 1564.08 C 1006.94 1564.17 1005.96 1563.69 1004.44 1563.32 C 990.422 1559.93 973.974 1559.1 959.613 1558.2 C 960.013 1557.73 960.421 1557.25 960.836 1556.79 C 971.418 1544.81 993.894 1525.56 1005.75 1512.8 C 1006.79 1511.69 1011.76 1511.45 1013.58 1511.35 z"/>
<path transform="translate(0,0)" fill="rgb(255,255,255)" d="M 1042.8 1454.9 C 1062.09 1455.45 1084.36 1456.83 1103.14 1460.06 C 1093.71 1475.42 1086.48 1485.31 1075.24 1499.47 C 1074.56 1499.97 1073.76 1500.56 1072.84 1501.24 C 1056.38 1499.36 1033.68 1498.16 1018.11 1498.01 C 1026.59 1485.58 1038 1469.07 1042.8 1454.9 z"/>
<path transform="translate(0,0)" fill="rgb(255,255,255)" d="M 951.086 1570.32 C 966.081 1571.52 978.81 1572.87 993.503 1576.11 C 978.746 1589.56 937.212 1613.72 919.085 1622.36 C 908.77 1627.23 899.513 1631.54 888.937 1635.75 C 896.139 1620.99 908.659 1607.08 919.844 1595.21 C 927.47 1587.12 935.095 1578.26 943.985 1571.6 C 944.948 1570.88 949.736 1570.43 951.086 1570.32 z"/>
<path transform="translate(0,0)" fill="rgb(25,25,23)" d="M 1120.88 774.511 C 1125.46 775.239 1128.59 777.104 1128.52 781.85 C 1126.18 786.135 1120.25 790.742 1116.39 794.343 C 1114.29 795.753 1114.19 795.617 1111.78 795.946 C 1106.45 790.271 1116.78 778.542 1120.88 774.511 z"/>
<path transform="translate(0,0)" fill="rgb(25,25,23)" d="M 858.625 913.02 C 862.904 914.325 868.772 914.907 870.877 917.546 C 869.472 920.42 869.787 919.564 866.398 921.445 C 858.606 921.38 860.846 917.114 853.629 917.366 C 857.578 915.307 856.72 916.449 858.625 913.02 z"/>
<path transform="translate(0,0)" fill="rgb(25,25,23)" d="M 960.78 808.454 C 964.818 810.078 968.469 815.472 967.476 820.065 C 962.853 820.123 960.027 820.831 957.786 816.188 C 957.926 812.585 958.883 811.595 960.78 808.454 z"/>
<path transform="translate(0,0)" fill="rgb(25,25,23)" d="M 916.344 1163.07 C 922.125 1164.81 925.593 1166.31 924.64 1172.87 C 920.419 1172.98 917.521 1173.56 914.384 1171.33 C 913.602 1168.23 915.012 1166.16 916.344 1163.07 z"/>
<path transform="translate(0,0)" fill="rgb(25,25,23)" d="M 1151.73 809.169 C 1156.99 810.266 1160.23 814.078 1159.67 819.537 C 1155.2 819.458 1154.02 819.7 1150.88 817.057 C 1149.94 813.661 1150.6 812.719 1151.73 809.169 z"/>
<path transform="translate(0,0)" fill="rgb(25,25,23)" d="M 853.629 917.366 C 850.317 913.936 849.69 909.696 851.125 905.17 L 852.728 904.642 C 855.906 906.3 856.937 909.61 858.625 913.02 C 856.72 916.449 857.578 915.307 853.629 917.366 z"/>
<path transform="translate(0,0)" fill="rgb(25,25,23)" d="M 846.782 1196.85 C 853.536 1197.48 858.819 1197.03 862.632 1203 C 855.454 1203.16 847.643 1205.19 846.782 1196.85 z"/>
<path transform="translate(0,0)" fill="rgb(25,25,23)" d="M 888.215 875.825 C 889.703 876.305 889.033 876.078 890.255 877.854 C 890.413 882.766 888.024 884.978 883.932 887.143 C 882.414 885.91 882.384 885.594 881.336 883.907 C 882.616 879.748 884.543 879.136 888.215 875.825 z"/>
<path transform="translate(0,0)" fill="rgb(25,25,23)" d="M 947.468 981.689 C 951.826 982.163 951.782 981.806 954.212 984.419 C 953.855 988.074 953.797 987.113 951.306 990.544 C 948.562 990.144 948.047 990.246 945.929 988.384 C 945.337 984.744 945.636 985.707 947.468 981.689 z"/>
<path transform="translate(0,0)" fill="#191917" d="M 1102.46 312.962 L 1103.29 311.985 C 1129.04 281.375 1133.76 240.47 1179.83 226.794 C 1190.97 223.485 1202.09 218.974 1213.52 217.911 C 1224.6 216.882 1232.56 222.287 1231.89 234.837 C 1230.38 262.841 1218.88 295.03 1201.47 317.162 C 1184.46 333.434 1157.17 337.296 1135.82 357.928 C 1161.04 351.948 1174.31 345.42 1198.62 335.952 C 1188.71 359.911 1174.77 391.682 1156.46 410.837 C 1149.93 417.672 1136.33 424.161 1127.5 428.088 C 1105.35 437.952 1040.36 451.506 1023.84 464.451 L 1023.38 465.932 C 1035.57 469.332 1126.07 442.63 1142.06 436.937 C 1131.02 449.066 1128.41 452.374 1114.92 461.68 C 1104.96 468.55 1055.29 485.88 1050.48 491.234 C 1056.72 496.785 1108.84 477.964 1117.54 473.289 L 1116.52 474.325 C 1104.28 487.024 1091.83 510.723 1079.35 523.547 C 1058.4 545.065 1021.54 549.88 991.489 565.985 C 1031.55 566.36 1036.8 558.722 1070.38 547.982 C 1041.16 576.486 1025.47 582.508 985.53 591.159 C 954.726 597.831 907.168 608.515 880.498 625.273 C 919.267 616.927 957.995 606.95 996.931 598.992 C 1009.14 596.496 1022.3 592.706 1033.7 587.66 C 1018.79 612.732 1002.81 637.154 985.812 660.857 C 958.337 698.602 943.597 713.919 901.049 732.819 C 884.131 740.351 866.761 746.827 849.041 752.209 C 827.207 758.94 794.619 764.898 776.635 776.606 C 822.85 773.085 904.448 753.809 942.69 727.084 C 915.107 774.61 886.409 821.952 847.85 861.491 C 802.764 907.725 732.666 911.43 681.408 946.545 C 724.405 938.843 767.445 926.002 807.278 907.695 C 813.211 904.969 818.844 901.494 824.658 898.708 C 790.574 945.195 747.546 951.724 694.368 965.665 C 677.574 970.067 667.05 970.087 651.118 978.313 C 695.337 974.495 742.259 965.798 783.003 947.656 C 755.421 976.96 723.177 1005.61 686.544 1022.91 C 668.235 1031.56 647.345 1036.23 632.068 1048.9 C 653.938 1047.78 676.971 1051.41 699.042 1052.92 C 679.741 1057.38 659.568 1063.29 641.538 1071.59 C 634.268 1074.94 605.672 1086.81 601.831 1092.16 C 614.612 1091.79 645.318 1088.44 655.387 1100.11 L 654.66 1100.92 C 648.715 1101.2 635.203 1099 628.733 1097.82 C 614.882 1095.28 588.805 1107.43 577.426 1115.49 C 595.523 1113.02 607.852 1111.37 626.139 1115.18 C 598.736 1119.12 582.302 1119.8 558.434 1135.96 C 569.479 1137.09 590.385 1138.51 597.121 1148.8 L 596.173 1150.03 C 578.007 1146.49 554.527 1143.84 538.374 1155.53 C 524.08 1165.87 476.35 1281.83 468.024 1304.9 C 461.07 1324.16 456.825 1344.72 448.683 1363.5 C 443.024 1376.54 435.5 1390.7 427.596 1402.5 C 412.594 1424.91 393.827 1444.2 378.155 1466.04 L 306.272 1567.72 C 298.284 1579.13 282.869 1604.44 273.903 1612.77 C 280.865 1594.05 291.976 1571.64 300.51 1553.18 C 314.264 1522.71 328.259 1492.36 342.492 1462.12 C 351.507 1442.69 358.624 1424.27 367.174 1405.25 C 386.178 1362.25 406.533 1319.85 428.207 1278.12 C 443.087 1249.13 458.222 1220.27 473.611 1191.54 C 480.565 1178.6 487.829 1163.55 494.851 1151.05 C 513.589 1117.71 515.283 1097.53 488.579 1066.94 C 497.965 1071.54 509.863 1079.14 518.141 1082.76 C 517.618 1071.35 517.282 1059.35 515.17 1048.13 C 511.989 1031.23 507.407 1016.15 505.375 998.932 C 516.788 1012.83 522.343 1028.7 532.883 1042.69 C 534.966 998.633 519.917 980.502 531.235 930.7 C 531.803 944.608 539.992 1005.51 549.57 1012.85 L 550.669 1012.43 C 551.445 1004.35 548.725 987.229 547.607 978.456 C 545.895 965.167 544.8 951.805 544.325 938.415 C 542.781 902.652 546.666 891.095 566.2 861.235 C 567.574 862.783 569.408 864.728 570.587 866.35 C 569.531 885.636 572.834 942.931 581.569 957.525 L 582.803 957.521 C 583.531 953.335 581.465 909.21 581.346 901.032 C 580.637 852.067 591.583 817.732 614.408 774.751 C 621.188 761.984 626.87 750.003 635.57 738.037 C 637.907 740.318 638.658 741.344 640.559 744.015 C 635.534 768.412 634.36 812.005 642.452 835.261 L 643.502 835.52 C 646.457 829.304 646.416 802.436 646.38 793.425 C 646.154 737.816 668.521 685.2 709.921 646.715 C 713.922 641.331 719.859 635.854 724.9 631.299 C 721.215 640.125 720.236 644.213 718.108 653.527 C 715.772 670.099 709.34 738.57 715.979 751.47 L 717.501 751.55 C 720.594 743.564 723.417 706.404 724.268 696.246 C 731.444 610.594 752.513 594.502 799.919 532.638 C 790.088 559.574 782.846 596.931 785.111 625.758 L 786.318 627.343 L 787.736 627.038 C 789.123 623.088 789.763 619.128 790.491 615.021 C 794.172 594.251 797.91 574.152 804.439 554.047 C 819.751 506.899 862.632 469.162 898.028 436.707 L 940.443 397.208 C 936.587 408.608 910.356 487.446 913.395 494.188 C 923.957 488.507 944.914 408.631 959.196 389.607 C 980.235 361.581 997.658 342.683 1027.25 322.818 C 1020.57 345.034 1005.09 386.475 1001.58 407.045 C 1032.1 374.491 1026.43 316.742 1065.15 290.911 C 1083.95 278.374 1103.49 262.826 1124.37 254.264 C 1117.27 274.444 1107.85 292.623 1102.46 312.962 z"/>
<path transform="translate(0,0)" fill="rgb(25,25,23)" d="M 709.921 646.715 C 713.922 641.331 719.859 635.854 724.9 631.299 C 721.215 640.125 720.236 644.213 718.108 653.527 C 717.637 650.454 717.248 648.053 716.542 645.03 L 714.699 644.291 L 709.921 646.715 z"/>
<path transform="translate(0,0)" fill="rgb(255,255,255)" d="M 1137.83 305.898 L 1138.43 307.514 C 1135.83 314.833 1009.38 445.635 997.149 459.169 C 892.988 574.379 799.406 693.694 714.877 823.997 C 646.441 928.326 583.89 1036.4 527.515 1147.71 C 513.163 1175.57 500.048 1206.46 485.21 1235.53 C 482.177 1233.69 478.407 1231.69 475.259 1229.93 C 470.971 1228.34 468.329 1228.2 467.941 1223.3 C 470.932 1216.99 474.843 1211.12 477.747 1204.8 C 496.408 1164.21 518.793 1125.86 539.031 1086.08 C 561.78 1041.36 585.725 997.383 610.938 953.992 C 723.399 759.029 860.536 579.384 1018.95 419.503 C 1044.5 393.565 1070.49 368.596 1097.09 343.747 C 1109.61 332.048 1124.16 315.447 1137.83 305.898 z"/>
<path transform="translate(0,0)" fill="rgb(255,255,255)" d="M 456.247 1250.83 C 461.413 1253.27 472.447 1258.08 476.121 1262.09 L 475.696 1263.93 C 472.568 1266.53 468.175 1265.41 464.471 1266.27 C 460.449 1267.14 458.983 1275.11 457.206 1278.92 C 430.164 1336.98 398.437 1394.66 365.883 1449.71 C 362.077 1455.81 360.87 1458.01 355.519 1462.76 C 363.975 1436.98 391.606 1383 403.84 1358.24 C 419.385 1326.79 438.997 1279.76 456.247 1250.83 z"/>
<path transform="translate(0,0)" fill="rgb(255,255,255)" d="M 902.565 703.198 C 906.411 702.668 908.369 702.121 911.42 704.069 L 911.029 705.897 C 899.158 717.324 851.925 727.757 834.239 731.354 L 822.402 733.774 C 838.408 720.135 881.979 707.757 902.565 703.198 z"/>
<path transform="translate(0,0)" fill="rgb(25,25,23)" d="M 726.403 829.249 L 728.965 830.582 C 730.157 834.205 729.114 849.319 727.05 853.438 C 719.147 849.738 722.819 834.349 726.403 829.249 z"/>
<path transform="translate(0,0)" fill="#191917" d="M 721.731 149.474 C 732.728 149.413 743.725 149.591 754.715 150.006 C 855.623 154.052 983.056 205.511 1051.85 280.166 L 1042.68 288.822 C 1019.05 268.872 998.688 251.107 972.073 234.372 C 907.521 193.785 828.097 166.974 751.878 163.965 C 632.197 158.375 515.211 200.638 426.736 281.428 C 340.177 360.844 287.234 470.332 278.736 587.495 C 275.079 640.621 278.691 696.365 276.636 749.89 C 299.341 730.471 323.506 698.546 343.475 675.84 C 360.109 658.111 377.474 639.239 394.469 622.022 C 414.479 601.752 441.563 557.378 466.676 547.159 C 482.078 554.416 494.616 566.574 509.549 575.677 C 527.393 560.349 555.697 515.03 570.913 494.621 C 591.793 466.149 617.177 441.363 639.909 414.39 C 655.465 396.009 670.705 377.566 686.46 359.328 C 693.641 351.016 703.97 339.221 716.409 341.945 C 720.89 342.927 727.207 349.089 730.275 352.668 C 748.671 374.133 765.467 397.148 783.34 419.073 C 799.086 438.897 817.774 458.501 831.789 479.144 C 806.835 511.179 774.862 535.123 752.964 569.457 C 742.7 585.55 735.032 603.463 719.518 615.177 C 715.815 617.973 710.956 623.253 707.634 626.696 C 691.292 591.905 674.999 580.275 695.092 544.068 C 699.719 535.73 705.525 520.836 708.69 511.493 C 717.786 484.645 702.965 475.712 700.953 447.472 C 699.858 432.098 709.144 385.254 704.818 377.12 L 703.101 376.763 C 699.682 378.618 666.189 421.023 659.561 428.649 C 648.164 441.762 635.762 457.27 622.493 470.415 C 615.064 477.775 600.414 491.181 594.572 499.072 C 581.796 516.33 578.567 536.262 566.827 556.466 C 551.632 582.617 530.337 601.862 517.074 627.631 C 508.623 644.05 500.714 663.338 495.274 681.002 C 491.528 693.164 488.926 712.555 483.945 723.478 C 473.963 745.369 458.796 766.358 447.024 787.765 C 457.231 784.671 466.308 779.127 475.494 773.823 C 483.061 769.485 488.334 766.727 496.271 763.11 C 483.082 793.434 462.288 823.684 447.507 855.902 C 465.518 841.79 485.927 820.398 504.283 804.889 C 501.409 823.206 499.81 830.404 494.246 848.266 C 525.094 835.337 558.775 815.482 589.18 799.733 C 579.321 826.437 566.417 834.394 551.831 857.239 C 539.639 876.336 530.556 909.5 521.112 930.983 C 515.019 944.843 514.575 979.678 517.872 994.442 C 506.318 978.2 501.632 968.549 482.872 961.837 C 488.937 989.897 497.283 1016.9 502.903 1043.95 C 494.919 1035.26 471.54 1009.69 458.825 1014.33 L 458.588 1016.12 C 460.531 1018.95 463.122 1021.18 465.729 1023.39 C 479.202 1034.79 491.163 1047.28 503.325 1060.04 C 483.425 1052.82 464.617 1052.56 443.507 1053.63 C 463.148 1066.75 486.816 1074.32 492.639 1100.61 C 494.334 1108.53 494.093 1116.75 491.935 1124.56 C 488.391 1137.09 453.369 1201.48 444.658 1214.99 C 432.455 1208.54 416.559 1203.43 403.433 1199.16 C 361.703 1185.58 322.058 1181.07 278.15 1184.06 C 277.975 1186.96 276.68 1198.87 281.041 1198.66 C 334.682 1196.18 388.582 1204.52 437.76 1227.96 C 431.554 1238.71 425.88 1247.07 420.306 1258.38 C 380.406 1243.89 322.596 1237.29 279.938 1238.12 C 281.405 1256.51 281.994 1269.87 286.376 1287.94 C 313.792 1283.91 369.743 1290.96 396.791 1300.13 L 389.503 1312.5 C 354.597 1302.21 325.129 1299.33 289.114 1302.08 C 292.212 1319.23 301.199 1348.81 307.316 1365.29 C 321.902 1362.48 347.409 1364.24 362.176 1366.29 C 360.256 1370.67 357.878 1374.97 355.636 1379.21 C 342.083 1377.03 326.181 1376.84 312.512 1377.87 C 320.141 1396.68 328.998 1414.96 339.025 1432.6 C 336.177 1437.61 333.505 1443.33 330.94 1448.53 C 284.588 1360.03 265.688 1302.71 263.989 1201.71 C 261.799 1071.59 263.369 941.691 263.765 811.641 L 263.761 659.806 C 264.234 607.128 262.64 569.231 274.998 516.18 C 293.733 432.599 334.86 355.691 393.971 293.702 C 479.426 203.566 597.544 151.59 721.731 149.474 z"/>
<path transform="translate(0,0)" fill="rgb(255,255,255)" d="M 456.828 583.531 C 461.015 584.406 459.837 583.517 461.94 586.437 C 462.757 591.776 459.594 599.441 459.476 604.723 C 458.798 634.97 442.989 651.714 430.374 677.06 C 426.227 685.394 423.325 700.044 420.927 710.009 C 426.055 708.147 432.602 705.258 437.143 709.261 C 438.344 713.269 435.611 717.397 434.971 721.278 C 426.037 775.427 379.832 806.141 336.647 833.09 C 325.011 840.351 312.352 849.734 299.127 856.676 C 307.52 842.889 320.031 825.726 329.281 811.566 C 335.114 802.125 339.076 793.351 343.597 783.267 C 321.425 790.824 300.286 808.509 279.419 820.604 C 288.12 802.265 304.655 783.714 316.32 766.808 C 329.033 748.382 341.179 729.487 352.126 709.928 C 356.534 702.05 360.85 688.054 366.624 681.955 C 381.543 666.196 403.224 657.935 416.487 639.891 C 430.359 622.745 441.899 597.874 456.828 583.531 z"/>
<path transform="translate(0,0)" fill="rgb(25,25,23)" d="M 769.194 422.452 C 774.598 426.506 773.456 431.568 769.463 436.189 C 765.362 434.717 765.831 435.133 764.642 431.591 C 765.248 427.63 766.95 425.704 769.194 422.452 z"/>
<path transform="translate(0,0)" fill="#191917" d="M 1184.29 402.298 L 1187.08 403.937 C 1208.15 437.517 1226.02 514.338 1230.15 554.289 C 1235.06 601.876 1233.97 652.028 1233.97 700.086 L 1233.97 900.535 L 1234 1112.3 C 1234.01 1158.96 1235.34 1211.28 1231.09 1257.02 C 1218.38 1392.28 1152.46 1516.96 1047.83 1603.62 C 944.648 1688.91 811.57 1729.25 678.4 1715.61 C 554.609 1703.8 430.57 1640.54 351.192 1544.55 C 345.716 1539.13 348.697 1532.75 354.7 1529.91 C 358.505 1530.39 391.86 1566.92 398.278 1572.88 C 651.697 1807.96 1046.7 1715.79 1181 1399.65 C 1199.96 1354.91 1212.24 1307.64 1217.44 1259.33 C 1222.12 1215.1 1220.47 1159.4 1220.39 1113.65 L 1220.69 916.107 L 1220.53 726.902 C 1221.13 624.361 1226.13 525.14 1184 429.566 C 1181.95 424.932 1180.1 419.844 1178.2 415.127 L 1184.29 402.298 z"/>
<path transform="translate(0,0)" fill="rgb(25,25,23)" d="M 700.623 111.425 C 722.361 108.428 781.822 112.525 804.812 115.832 C 892.253 128.409 976.375 166.195 1045.08 221.575 C 1058.07 232.04 1073.3 244.081 1083.33 257.211 L 1074.08 264.5 C 980.754 174.066 855.648 123.891 725.693 124.774 C 597.948 125.421 475.618 176.452 385.283 266.779 C 298.897 352.838 246.944 467.503 239.202 589.194 C 237.433 613.554 238.057 639.928 238.112 664.515 L 238.097 766.843 L 238.18 1055.5 L 238.507 1154.77 C 238.567 1178.64 237.913 1208 239.302 1231.58 C 242.991 1296.28 258.948 1359.69 286.323 1418.42 C 292.973 1432.52 308.019 1461.93 317.278 1474.98 C 314.726 1480.1 313.543 1483.66 311.685 1489.08 C 253.859 1406.95 226.735 1308.46 225.525 1208.61 C 225.125 1175.67 225.192 1142.79 225.246 1109.84 L 225.409 915.447 L 225.187 715.444 C 225.216 640.266 221.423 568.04 240.243 494.212 C 294.894 279.821 479.76 124.644 700.623 111.425 z"/>
<path transform="translate(0,0)" fill="#191917" d="M 657.959 508.599 C 662.068 511.445 655.872 521.284 655.641 527.773 C 655.262 538.421 659.425 546.59 663.274 556.207 C 655.208 578.219 638.597 594.704 625.531 613.56 C 624.175 615.517 620.347 622.74 620.894 624.565 C 623.964 634.797 644.437 643.944 642.638 657.061 C 640.914 669.632 629.259 678.687 621.199 687.357 C 613.165 695.415 604 703.992 595.394 712.013 C 592.53 714.724 593.176 714.96 589.922 715.63 C 589.709 714.267 606.028 680.169 607.883 676.432 C 618.349 655.349 594.143 647.89 592.398 639.421 C 585.852 607.666 629.315 587.955 642.27 557.548 C 634.5 534.477 640.857 525.126 657.959 508.599 z"/>
<path transform="translate(0,0)" fill="#191917" d="M 392.013 376.666 C 424.62 393.341 456.399 415.953 488.741 433.683 C 498.392 438.973 509.746 445.053 497.886 455.211 C 487.606 451.577 394.547 396.599 388.113 389.906 C 386.619 388.352 386.005 387.214 386.132 384.994 C 386.333 381.479 389.6 378.856 392.013 376.666 z"/>
<path transform="translate(0,0)" fill="#191917" d="M 466.108 288.511 C 467.528 288.664 468.995 288.868 470.333 289.392 C 479.254 292.885 551.543 376.746 554.807 384.4 C 554.92 387.992 553.307 389.541 551.217 392.579 C 543.958 392.03 541.87 388.656 537.143 383.388 C 513.318 356.838 490.188 329.786 465.19 304.304 C 459.059 298.054 461.694 294.309 466.108 288.511 z"/>
<path transform="translate(0,0)" fill="url(#Gradient2)" d="M 339.158 481.788 C 343.763 482.014 383.129 492.058 390.916 493.984 C 412.627 499.354 438.053 503.032 459.082 510.234 C 462.817 511.514 463.265 513.204 464.475 516.259 C 464.148 519.992 462.878 521.157 460.693 524.227 C 454.174 523.942 340.238 497.281 337.087 495.572 C 332.79 489.64 334.17 486.995 339.158 481.788 z"/>
<path transform="translate(0,0)" fill="rgb(25,25,23)" d="M 896.12 234.532 C 912.889 233.915 903.716 252.312 898.847 258.85 C 887.46 274.142 856.459 346.645 845.502 355.489 C 840.324 354.354 837.844 354.477 835.255 349.608 C 835.611 346.086 891.776 239.766 896.12 234.532 z"/>
<path transform="translate(0,0)" fill="rgb(25,25,23)" d="M 562.245 225.64 C 563.83 225.648 567.684 226.002 568.329 227.102 C 577.93 243.482 622.066 332.616 623.175 341.734 C 621.414 344.989 621.478 344.195 617.798 346.436 C 615.975 346.316 613.625 346.285 612.221 344.958 C 607.875 340.85 557.064 238.507 557.198 233.89 C 557.301 230.335 559.928 228.003 562.245 225.64 z"/>
<path transform="translate(0,0)" fill="url(#Gradient1)" d="M 786.744 194.75 C 790.464 195.845 791.547 195.812 794.014 198.549 C 798.116 207.469 778.242 281.727 777.453 296.535 C 777.082 303.493 773.311 323.239 767.364 327.541 C 763.959 326.577 763.568 326.587 760.776 324.548 C 759.78 322.77 758.988 321.136 759.362 319.014 C 765.95 281.678 772.858 244.377 779.908 207.121 C 781.283 199.856 780.756 198.762 786.744 194.75 z"/>
<path transform="translate(0,0)" fill="rgb(25,25,23)" d="M 671.387 192.906 C 675.112 192.772 676.661 192.407 680.082 193.972 C 684.266 200.333 687.694 256.42 689.662 267.838 C 692.054 281.715 693.542 303.274 694.925 317.978 C 695.23 321.218 693.984 322.684 692.326 325.128 C 688.771 324.63 687.754 324.756 684.864 322.853 C 680.201 315.205 670.897 218.416 667.8 201.638 C 667.117 197.935 669.087 195.662 671.387 192.906 z"/>
<path transform="translate(0,0)" fill="rgb(25,25,23)" d="M 981.683 305.676 C 987.073 305.949 989.282 307.645 990.231 312.75 C 989.636 315.4 988.325 317.079 986.402 319 C 964.582 340.794 942.83 362.664 921.111 384.567 C 916.637 389.079 911.889 393.966 906.702 397.626 C 902.578 395.601 899.651 393.798 898.505 389.308 C 903.087 380.884 972.061 312.628 981.683 305.676 z"/>
<path transform="translate(0,0)" fill="rgb(25,25,23)" d="M 648.01 720.13 C 645.302 728.019 642.39 735.885 640.559 744.015 C 638.658 741.344 637.907 740.318 635.57 738.037 C 639.115 732.029 643.93 725.877 648.01 720.13 z"/>
<path transform="translate(0,0)" fill="rgb(25,25,23)" d="M 575.526 848.303 C 573.779 853.81 571.301 860.755 570.587 866.35 C 569.408 864.728 567.574 862.783 566.2 861.235 C 569.24 856.925 572.302 852.462 575.526 848.303 z"/>
</svg>
